<mxfile host="app.diagrams.net" agent="Mozilla/5.0 (Windows NT 10.0; Win64; x64) AppleWebKit/537.36 (KHTML, like Gecko) Chrome/133.0.0.0 Safari/537.36 Edg/133.0.0.0" version="26.0.16">
  <diagram name="Page-1" id="_LlCNrH6KjazchjHKoFE">
    <mxGraphModel dx="1042" dy="613" grid="1" gridSize="10" guides="1" tooltips="1" connect="1" arrows="1" fold="1" page="1" pageScale="1" pageWidth="1169" pageHeight="1654" math="0" shadow="0">
      <root>
        <mxCell id="0" />
        <mxCell id="1" parent="0" />
        <mxCell id="qYKDbDnNrvzntGf6wQPT-1" value="" style="ellipse;html=1;shape=startState;fillColor=#000000;strokeColor=#ff0000;" vertex="1" parent="1">
          <mxGeometry x="130" y="175" width="30" height="30" as="geometry" />
        </mxCell>
        <mxCell id="qYKDbDnNrvzntGf6wQPT-2" value="" style="edgeStyle=orthogonalEdgeStyle;html=1;verticalAlign=bottom;endArrow=open;endSize=8;strokeColor=#ff0000;rounded=0;entryX=0;entryY=0.5;entryDx=0;entryDy=0;exitX=1;exitY=0.5;exitDx=0;exitDy=0;" edge="1" source="qYKDbDnNrvzntGf6wQPT-1" parent="1" target="qYKDbDnNrvzntGf6wQPT-4">
          <mxGeometry relative="1" as="geometry">
            <mxPoint x="230" y="110" as="targetPoint" />
            <mxPoint x="70" y="175" as="sourcePoint" />
            <Array as="points">
              <mxPoint x="160" y="190" />
            </Array>
          </mxGeometry>
        </mxCell>
        <mxCell id="qYKDbDnNrvzntGf6wQPT-4" value="Hiển thị màn hình lập thời khóa biểu" style="rounded=1;whiteSpace=wrap;html=1;arcSize=40;fontColor=#000000;fillColor=#ffffc0;strokeColor=#ff0000;" vertex="1" parent="1">
          <mxGeometry x="312.5" y="170" width="245" height="40" as="geometry" />
        </mxCell>
        <mxCell id="qYKDbDnNrvzntGf6wQPT-5" value="" style="edgeStyle=orthogonalEdgeStyle;html=1;verticalAlign=bottom;endArrow=open;endSize=8;strokeColor=#ff0000;rounded=0;" edge="1" source="qYKDbDnNrvzntGf6wQPT-4" parent="1">
          <mxGeometry relative="1" as="geometry">
            <mxPoint x="435" y="270" as="targetPoint" />
          </mxGeometry>
        </mxCell>
        <mxCell id="qYKDbDnNrvzntGf6wQPT-6" value="Nhập thông tin (môn học, số lượng sinh viên)" style="rounded=1;whiteSpace=wrap;html=1;arcSize=40;fontColor=#000000;fillColor=#ffffc0;strokeColor=#ff0000;" vertex="1" parent="1">
          <mxGeometry x="347.5" y="270" width="175" height="40" as="geometry" />
        </mxCell>
        <mxCell id="qYKDbDnNrvzntGf6wQPT-7" value="" style="edgeStyle=orthogonalEdgeStyle;html=1;verticalAlign=bottom;endArrow=open;endSize=8;strokeColor=#ff0000;rounded=0;entryX=0.5;entryY=0;entryDx=0;entryDy=0;" edge="1" source="qYKDbDnNrvzntGf6wQPT-6" parent="1" target="qYKDbDnNrvzntGf6wQPT-9">
          <mxGeometry relative="1" as="geometry">
            <mxPoint x="435" y="370" as="targetPoint" />
          </mxGeometry>
        </mxCell>
        <mxCell id="qYKDbDnNrvzntGf6wQPT-9" value="Khởi tạo quẩn thể thời khóa biểu&amp;nbsp;ngẫu nhiên dựa trên yêu cầu" style="rounded=1;whiteSpace=wrap;html=1;arcSize=40;fontColor=#000000;fillColor=#ffffc0;strokeColor=#ff0000;" vertex="1" parent="1">
          <mxGeometry x="330" y="350" width="210" height="40" as="geometry" />
        </mxCell>
        <mxCell id="qYKDbDnNrvzntGf6wQPT-10" value="" style="edgeStyle=orthogonalEdgeStyle;html=1;verticalAlign=bottom;endArrow=open;endSize=8;strokeColor=#ff0000;rounded=0;entryX=0.5;entryY=0;entryDx=0;entryDy=0;" edge="1" source="qYKDbDnNrvzntGf6wQPT-9" parent="1" target="qYKDbDnNrvzntGf6wQPT-24">
          <mxGeometry relative="1" as="geometry">
            <mxPoint x="435" y="490" as="targetPoint" />
            <Array as="points" />
          </mxGeometry>
        </mxCell>
        <mxCell id="qYKDbDnNrvzntGf6wQPT-24" value="Kiểm tra điều kiện xung đột và đánh giá chất lượng thời khóa biểu" style="rounded=1;whiteSpace=wrap;html=1;arcSize=40;fontColor=#000000;fillColor=#ffffc0;strokeColor=#ff0000;" vertex="1" parent="1">
          <mxGeometry x="360" y="420" width="150" height="40" as="geometry" />
        </mxCell>
        <mxCell id="qYKDbDnNrvzntGf6wQPT-25" value="" style="edgeStyle=orthogonalEdgeStyle;html=1;verticalAlign=bottom;endArrow=open;endSize=8;strokeColor=#ff0000;rounded=0;" edge="1" source="qYKDbDnNrvzntGf6wQPT-24" parent="1">
          <mxGeometry relative="1" as="geometry">
            <mxPoint x="435" y="520" as="targetPoint" />
          </mxGeometry>
        </mxCell>
        <mxCell id="qYKDbDnNrvzntGf6wQPT-28" value="Chọn 2 thời khóa biểu tốt nhất để tiến hành hoán đổi, đột biến" style="rounded=1;whiteSpace=wrap;html=1;arcSize=40;fontColor=#000000;fillColor=#ffffc0;strokeColor=#ff0000;" vertex="1" parent="1">
          <mxGeometry x="330" y="520" width="210" height="40" as="geometry" />
        </mxCell>
        <mxCell id="qYKDbDnNrvzntGf6wQPT-29" value="" style="edgeStyle=orthogonalEdgeStyle;html=1;verticalAlign=bottom;endArrow=open;endSize=8;strokeColor=#ff0000;rounded=0;entryX=0.5;entryY=0;entryDx=0;entryDy=0;" edge="1" source="qYKDbDnNrvzntGf6wQPT-28" parent="1" target="qYKDbDnNrvzntGf6wQPT-30">
          <mxGeometry relative="1" as="geometry">
            <mxPoint x="435" y="620" as="targetPoint" />
          </mxGeometry>
        </mxCell>
        <mxCell id="qYKDbDnNrvzntGf6wQPT-30" value="Kiểm tra các điều kiện và hạn chế" style="rhombus;whiteSpace=wrap;html=1;fontColor=#000000;fillColor=#ffffc0;strokeColor=#ff0000;" vertex="1" parent="1">
          <mxGeometry x="290" y="610" width="290" height="70" as="geometry" />
        </mxCell>
        <mxCell id="qYKDbDnNrvzntGf6wQPT-31" value="chưa đạt yêu cầu" style="edgeStyle=orthogonalEdgeStyle;html=1;align=left;verticalAlign=bottom;endArrow=open;endSize=8;strokeColor=#ff0000;rounded=0;entryX=1;entryY=0.5;entryDx=0;entryDy=0;exitX=1;exitY=0.5;exitDx=0;exitDy=0;" edge="1" source="qYKDbDnNrvzntGf6wQPT-30" parent="1" target="qYKDbDnNrvzntGf6wQPT-9">
          <mxGeometry x="-1" relative="1" as="geometry">
            <mxPoint x="720" y="370" as="targetPoint" />
            <Array as="points">
              <mxPoint x="780" y="645" />
              <mxPoint x="780" y="370" />
            </Array>
          </mxGeometry>
        </mxCell>
        <mxCell id="qYKDbDnNrvzntGf6wQPT-32" value="đạt yêu cầu" style="edgeStyle=orthogonalEdgeStyle;html=1;align=left;verticalAlign=top;endArrow=open;endSize=8;strokeColor=#ff0000;rounded=0;" edge="1" source="qYKDbDnNrvzntGf6wQPT-30" parent="1" target="qYKDbDnNrvzntGf6wQPT-36">
          <mxGeometry x="-1" relative="1" as="geometry">
            <mxPoint x="470" y="790" as="targetPoint" />
            <Array as="points">
              <mxPoint x="435" y="760" />
              <mxPoint x="471" y="760" />
            </Array>
          </mxGeometry>
        </mxCell>
        <mxCell id="qYKDbDnNrvzntGf6wQPT-40" value="" style="edgeStyle=orthogonalEdgeStyle;rounded=0;orthogonalLoop=1;jettySize=auto;html=1;strokeColor=#FF3333;" edge="1" parent="1" source="qYKDbDnNrvzntGf6wQPT-36" target="qYKDbDnNrvzntGf6wQPT-37">
          <mxGeometry relative="1" as="geometry" />
        </mxCell>
        <mxCell id="qYKDbDnNrvzntGf6wQPT-36" value="Trả về thời khóa biểu tối ưu" style="rounded=1;whiteSpace=wrap;html=1;arcSize=40;fontColor=#000000;fillColor=#ffffc0;strokeColor=#ff0000;" vertex="1" parent="1">
          <mxGeometry x="375" y="730" width="120" height="40" as="geometry" />
        </mxCell>
        <mxCell id="qYKDbDnNrvzntGf6wQPT-37" value="giáo vụ xác nhận và điều chỉnh thủ công" style="rounded=1;whiteSpace=wrap;html=1;arcSize=40;fontColor=#000000;fillColor=#ffffc0;strokeColor=#FF0000;" vertex="1" parent="1">
          <mxGeometry x="375" y="810" width="120" height="40" as="geometry" />
        </mxCell>
        <mxCell id="qYKDbDnNrvzntGf6wQPT-38" value="" style="edgeStyle=orthogonalEdgeStyle;html=1;verticalAlign=bottom;endArrow=open;endSize=8;strokeColor=#ff0000;rounded=0;" edge="1" source="qYKDbDnNrvzntGf6wQPT-37" parent="1">
          <mxGeometry relative="1" as="geometry">
            <mxPoint x="435" y="910" as="targetPoint" />
          </mxGeometry>
        </mxCell>
        <mxCell id="qYKDbDnNrvzntGf6wQPT-41" value="" style="ellipse;html=1;shape=endState;fillColor=#000000;strokeColor=#ff0000;" vertex="1" parent="1">
          <mxGeometry x="420" y="910" width="30" height="30" as="geometry" />
        </mxCell>
      </root>
    </mxGraphModel>
  </diagram>
</mxfile>
